<svg xmlns="http://www.w3.org/2000/svg" viewBox="0 0 48 48" id="happy"><g><g><circle cx="24" cy="21" r="20" fill="#ffe500"></circle><path fill="#ebcb00" d="M24 1C13 1 4 10 4 21s9 20 20 20 20-9 20-20S35 1 24 1zm0 37C13.9 38 5.8 29.8 5.8 19.8 5.8 9.7 13.9 1.5 24 1.5s18.2 8.2 18.2 18.2C42.3 29.8 34.1 38 24 38z"></path><ellipse cx="24" cy="5" fill="#fff48c" rx="6" ry="1.5"></ellipse><ellipse cx="24" cy="45.5" fill="#45413c" opacity=".15" rx="16" ry="1.5"></ellipse><circle cx="24" cy="21" r="20" fill="none" stroke="#45413c" stroke-linecap="round" stroke-linejoin="round" stroke-miterlimit="10"></circle><ellipse cx="36" cy="26" fill="#ffaa54" rx="2.5" ry="1.5"></ellipse><ellipse cx="12" cy="26" fill="#ffaa54" rx="2.5" ry="1.5"></ellipse><circle cx="13.5" cy="20" r="1" fill="#45413c" stroke="#45413c" stroke-linecap="round" stroke-linejoin="round" stroke-miterlimit="10"></circle><circle cx="34.5" cy="20" r="1" fill="#45413c" stroke="#45413c" stroke-linecap="round" stroke-linejoin="round" stroke-miterlimit="10"></circle><path fill="#ffb0ca" stroke="#45413c" stroke-linecap="round" stroke-linejoin="round" stroke-miterlimit="10" d="M24 38c5.6 0 10.3-4 11-9.2 0-.3-.1-.6-.3-.8-.2-.2-.6-.3-.9-.3-6.5 1-13 1-19.5 0-.3-.1-.7 0-.9.3-.2.2-.4.5-.3.8C13.7 34 18.4 38 24 38z"></path><path fill="#ff87af" stroke="#45413c" stroke-linecap="round" stroke-linejoin="round" stroke-miterlimit="10" d="M24 33c-3.2 0-6.1.7-8.1 1.7 2 2 4.9 3.3 8.1 3.3s6.1-1.3 8.1-3.3c-2-1-4.9-1.7-8.1-1.7z"></path></g></g></svg>